# xmcd CD database file
#
# Track frame offsets:
#	150
#	14896
#	33148
#	47956
#	63451
#	78620
#	95584
#	112060
#	128976
#	144545
#	160924
#	175322
#	187966
#	205167
#	217287
#	235215
#	252829
#	269298
#	282583
#	302171
#
# Disc length: 4227 seconds
#
# Revision: 0
# Processed by: cddbd v1.5.2PL0 Copyright (c) Steve Scherf et al.
# Submitted via: CDex 1.51
#
DISCID=38108114
DTITLE=Cowboy Vagabundo - As 20 +
DYEAR=2005
DGENRE=Country
TTITLE0=De bad boy a peão
TTITLE1=Casar pra que 
TTITLE2=A marvada
TTITLE3=Ganho a vido no gogo
TTITLE4=BR 153
TTITLE5=Cuida de mim
TTITLE6=Coração quer te encontrar
TTITLE7=Dois estranhos
TTITLE8=Rodo sem borracha
TTITLE9=Quando a vaca vai pro brejo
TTITLE10=Madrugada triste
TTITLE11=Não aprendi dizer adeus
TTITLE12=Con destino a barretos
TTITLE13=Boi bandido
TTITLE14=Sai de mim Saudade 
TTITLE15=Ainda existe cowboy
TTITLE16=vida de peão 
TTITLE17=Gostosa
TTITLE18=Cowboy vagabundo
TTITLE19=Amor pica pau
EXTD=YEAR: 2005
EXTT0=
EXTT1=
EXTT2=
EXTT3=
EXTT4=
EXTT5=
EXTT6=
EXTT7=
EXTT8=
EXTT9=
EXTT10=
EXTT11=
EXTT12=
EXTT13=
EXTT14=
EXTT15=
EXTT16=
EXTT17=
EXTT18=
EXTT19=
PLAYORDER=
